<svg id="wave" style="transform:rotate(0deg); transition: 0.3s" viewBox="0 0 1440 490" version="1.1" xmlns="http://www.w3.org/2000/svg"><defs><linearGradient id="sw-gradient-0" x1="0" x2="0" y1="1" y2="0"><stop stop-color="rgba(243, 106, 62, 1)" offset="0%"></stop><stop stop-color="rgba(255, 175.574, 0, 1)" offset="100%"></stop></linearGradient></defs><path style="transform:translate(0, 0px); opacity:1" fill="url(#sw-gradient-0)" d="M0,98L24,138.8C48,180,96,261,144,318.5C192,376,240,408,288,416.5C336,425,384,408,432,343C480,278,528,163,576,147C624,131,672,212,720,245C768,278,816,261,864,261.3C912,261,960,278,1008,310.3C1056,343,1104,392,1152,359.3C1200,327,1248,212,1296,147C1344,82,1392,65,1440,98C1488,131,1536,212,1584,245C1632,278,1680,261,1728,220.5C1776,180,1824,114,1872,106.2C1920,98,1968,147,2016,171.5C2064,196,2112,196,2160,204.2C2208,212,2256,229,2304,204.2C2352,180,2400,114,2448,122.5C2496,131,2544,212,2592,253.2C2640,294,2688,294,2736,245C2784,196,2832,98,2880,81.7C2928,65,2976,131,3024,147C3072,163,3120,131,3168,147C3216,163,3264,229,3312,220.5C3360,212,3408,131,3432,89.8L3456,49L3456,490L3432,490C3408,490,3360,490,3312,490C3264,490,3216,490,3168,490C3120,490,3072,490,3024,490C2976,490,2928,490,2880,490C2832,490,2784,490,2736,490C2688,490,2640,490,2592,490C2544,490,2496,490,2448,490C2400,490,2352,490,2304,490C2256,490,2208,490,2160,490C2112,490,2064,490,2016,490C1968,490,1920,490,1872,490C1824,490,1776,490,1728,490C1680,490,1632,490,1584,490C1536,490,1488,490,1440,490C1392,490,1344,490,1296,490C1248,490,1200,490,1152,490C1104,490,1056,490,1008,490C960,490,912,490,864,490C816,490,768,490,720,490C672,490,624,490,576,490C528,490,480,490,432,490C384,490,336,490,288,490C240,490,192,490,144,490C96,490,48,490,24,490L0,490Z"></path><defs><linearGradient id="sw-gradient-1" x1="0" x2="0" y1="1" y2="0"><stop stop-color="rgba(243, 106, 62, 1)" offset="0%"></stop><stop stop-color="rgba(255, 179, 11, 1)" offset="100%"></stop></linearGradient></defs><path style="transform:translate(0, 50px); opacity:0.9" fill="url(#sw-gradient-1)" d="M0,49L24,57.2C48,65,96,82,144,122.5C192,163,240,229,288,212.3C336,196,384,98,432,65.3C480,33,528,65,576,122.5C624,180,672,261,720,277.7C768,294,816,245,864,204.2C912,163,960,131,1008,171.5C1056,212,1104,327,1152,310.3C1200,294,1248,147,1296,81.7C1344,16,1392,33,1440,89.8C1488,147,1536,245,1584,277.7C1632,310,1680,278,1728,245C1776,212,1824,180,1872,138.8C1920,98,1968,49,2016,57.2C2064,65,2112,131,2160,204.2C2208,278,2256,359,2304,375.7C2352,392,2400,343,2448,326.7C2496,310,2544,327,2592,310.3C2640,294,2688,245,2736,236.8C2784,229,2832,261,2880,294C2928,327,2976,359,3024,351.2C3072,343,3120,294,3168,285.8C3216,278,3264,310,3312,277.7C3360,245,3408,147,3432,98L3456,49L3456,490L3432,490C3408,490,3360,490,3312,490C3264,490,3216,490,3168,490C3120,490,3072,490,3024,490C2976,490,2928,490,2880,490C2832,490,2784,490,2736,490C2688,490,2640,490,2592,490C2544,490,2496,490,2448,490C2400,490,2352,490,2304,490C2256,490,2208,490,2160,490C2112,490,2064,490,2016,490C1968,490,1920,490,1872,490C1824,490,1776,490,1728,490C1680,490,1632,490,1584,490C1536,490,1488,490,1440,490C1392,490,1344,490,1296,490C1248,490,1200,490,1152,490C1104,490,1056,490,1008,490C960,490,912,490,864,490C816,490,768,490,720,490C672,490,624,490,576,490C528,490,480,490,432,490C384,490,336,490,288,490C240,490,192,490,144,490C96,490,48,490,24,490L0,490Z"></path><defs><linearGradient id="sw-gradient-2" x1="0" x2="0" y1="1" y2="0"><stop stop-color="rgba(243, 106, 62, 1)" offset="0%"></stop><stop stop-color="rgba(255, 179, 11, 1)" offset="100%"></stop></linearGradient></defs><path style="transform:translate(0, 100px); opacity:0.8" fill="url(#sw-gradient-2)" d="M0,196L24,212.3C48,229,96,261,144,261.3C192,261,240,229,288,212.3C336,196,384,196,432,179.7C480,163,528,131,576,171.5C624,212,672,327,720,383.8C768,441,816,441,864,408.3C912,376,960,310,1008,302.2C1056,294,1104,343,1152,318.5C1200,294,1248,196,1296,138.8C1344,82,1392,65,1440,114.3C1488,163,1536,278,1584,334.8C1632,392,1680,392,1728,334.8C1776,278,1824,163,1872,147C1920,131,1968,212,2016,261.3C2064,310,2112,327,2160,302.2C2208,278,2256,212,2304,212.3C2352,212,2400,278,2448,302.2C2496,327,2544,310,2592,326.7C2640,343,2688,392,2736,367.5C2784,343,2832,245,2880,204.2C2928,163,2976,180,3024,155.2C3072,131,3120,65,3168,40.8C3216,16,3264,33,3312,40.8C3360,49,3408,49,3432,49L3456,49L3456,490L3432,490C3408,490,3360,490,3312,490C3264,490,3216,490,3168,490C3120,490,3072,490,3024,490C2976,490,2928,490,2880,490C2832,490,2784,490,2736,490C2688,490,2640,490,2592,490C2544,490,2496,490,2448,490C2400,490,2352,490,2304,490C2256,490,2208,490,2160,490C2112,490,2064,490,2016,490C1968,490,1920,490,1872,490C1824,490,1776,490,1728,490C1680,490,1632,490,1584,490C1536,490,1488,490,1440,490C1392,490,1344,490,1296,490C1248,490,1200,490,1152,490C1104,490,1056,490,1008,490C960,490,912,490,864,490C816,490,768,490,720,490C672,490,624,490,576,490C528,490,480,490,432,490C384,490,336,490,288,490C240,490,192,490,144,490C96,490,48,490,24,490L0,490Z"></path></svg>