<svg xmlns="http://www.w3.org/2000/svg" viewBox="0 0 1440 320">
  <path fill="#0099ff" fill-opacity="1" d="M0,64L16,90.7C32,117,64,171,96,160C128,149,160,75,192,42.7C224,11,256,21,288,69.3C320,117,352,203,384,245.3C416,288,448,288,480,245.3C512,203,544,117,576,106.7C608,96,640,160,672,197.3C704,235,736,245,768,213.3C800,181,832,107,864,69.3C896,32,928,32,960,48C992,64,1024,96,1056,106.7C1088,117,1120,107,1152,117.3C1184,128,1216,160,1248,181.3C1280,203,1312,213,1344,186.7C1376,160,1408,96,1424,64L1440,32L1440,320L1424,320C1408,320,1376,320,1344,320C1312,320,1280,320,1248,320C1216,320,1184,320,1152,320C1120,320,1088,320,1056,320C1024,320,992,320,960,320C928,320,896,320,864,320C832,320,800,320,768,320C736,320,704,320,672,320C640,320,608,320,576,320C544,320,512,320,480,320C448,320,416,320,384,320C352,320,320,320,288,320C256,320,224,320,192,320C160,320,128,320,96,320C64,320,32,320,16,320L0,320Z"></path>
</svg>